# xmcd
#
# Track frame offsets:
#	150
#	9690
#	19671
#	30470
#	40800
#	51757
#	62345
#	73292
#	83811
#	92094
#	103120
#	114943
#	124195
#	135137
#	145894
#	154201
#	162036
#	171045
#	185632
#	193500
#	199807
#	209890
#	218350
#	227773
#	237041
#	246894
#	256997
#	267480
#	276692
#	287182
#	297182
#	308115
#	318195
#	328532
#	341192
#
# Disc length: 4729 seconds
#
# Revision: 1
# Processed by: cddbd v1.5.2PL0 Copyright (c) Steve Scherf et al.
# Submitted via: audiograbber 1.83.01
#
DISCID=07127723
DTITLE=Chuck Miller - GVC 1003
DYEAR=2008
DGENRE=Rock and Roll
TTITLE0=Hopahula Boogie
TTITLE1=Idaho Red
TTITLE2=The House Of Blue Lights
TTITLE3=Can´t Help Wonderin´
TTITLE4=Hawk-Eye
TTITLE5=Something To Live For
TTITLE6=Lookout Mauntain
TTITLE7=Boogie Blues
TTITLE8=Bright Red Convertible
TTITLE9=Baltimore Jones
TTITLE10=Cool It Baby
TTITLE11=Vim Vam Vamoose
TTITLE12=The Auctioneer
TTITLE13=Baby Doll
TTITLE14=Miller´s Boogie
TTITLE15=I Can´t You Anything But love
TTITLE16=Cow Cow Boogie
TTITLE17=Re-Enlistment Blues
TTITLE18=September In Rain
TTITLE19=Chuck´s Boogie
TTITLE20=Good Morning Darling
TTITLE21=Bye Bye Love
TTITLE22=Rang Tang Ding Dong
TTITLE23=Plaything
TTITLE24=After Yesterday
TTITLE25=Down The Road Apiece
TTITLE26=Mad About Her Blues
TTITLE27=G.I. Jive
TTITLE28=Shoo Shoo Baby
TTITLE29=Heart and Soul
TTITLE30=Swingin´On A Star
TTITLE31=How Many Hearts Have You Been Broken ?
TTITLE32=Five Minutes More
TTITLE33=Saturday Night Fish Fry
TTITLE34=Up A Lazy River
EXTD=
EXTT0=
EXTT1=
EXTT2=
EXTT3=
EXTT4=
EXTT5=
EXTT6=
EXTT7=
EXTT8=
EXTT9=
EXTT10=
EXTT11=
EXTT12=
EXTT13=
EXTT14=
EXTT15=
EXTT16=
EXTT17=
EXTT18=
EXTT19=
EXTT20=
EXTT21=
EXTT22=
EXTT23=
EXTT24=
EXTT25=
EXTT26=
EXTT27=
EXTT28=
EXTT29=
EXTT30=
EXTT31=
EXTT32=
EXTT33=
EXTT34=
PLAYORDER=
